<?xml version="1.0" encoding="iso-8859-1"?>
<!-- Generator: Adobe Illustrator 16.0.0, SVG Export Plug-In . SVG Version: 6.00 Build 0)  -->
<!DOCTYPE svg PUBLIC "-//W3C//DTD SVG 1.1//EN" "http://www.w3.org/Graphics/SVG/1.1/DTD/svg11.dtd">
<svg version="1.1" id="Capa_1" xmlns="http://www.w3.org/2000/svg" xmlns:xlink="http://www.w3.org/1999/xlink" x="0px" y="0px"
	 width="612px" height="612px" viewBox="0 0 612 612" style="enable-background:new 0 0 612 612;" xml:space="preserve">
<g>
	<g>
		<path d="M587.572,186.881c-32.266-75.225-87.096-129.934-162.949-162.285C386.711,8.427,347.328,0.168,305.832,0.168
			c-41.488,0-80.914,8.181-118.784,24.428C111.824,56.861,56.415,111.535,24.092,186.881C7.895,224.629,0,264.176,0,305.664
			c0,41.496,7.895,81.371,24.092,119.127c32.323,75.346,87.731,130.348,162.956,162.621c37.877,16.247,77.295,24.42,118.784,24.42
			c41.489,0,80.879-8.259,118.784-24.42c75.853-32.352,130.683-87.403,162.956-162.621C603.819,386.914,612,347.16,612,305.664
			C612,264.176,603.826,224.757,587.572,186.881z M553.443,410.399c-14.198,33.065-33.044,61.99-57.222,85.997
			c-24.007,23.843-52.867,42.831-85.997,57.215c-33.129,14.391-67.93,21.415-104.399,21.415c-48.52,0-93.356-12.042-134.517-36.135
			c-41.16-24.092-74.018-56.844-98.039-98.039c-24.157-41.453-36.128-86.668-36.128-135.188c0-48.52,12.043-93.356,36.135-134.509
			c24.092-41.16,56.886-73.947,98.047-98.039c41.16-24.092,85.997-36.142,134.517-36.142c36.47,0,71.27,7.024,104.4,21.415
			c33.129,14.392,61.818,33.544,85.997,57.55c24.006,23.842,43.023,52.596,57.222,85.662
			c14.248,33.187,21.415,67.594,21.415,104.063C574.858,342.142,567.691,377.213,553.443,410.399z"/>
		<path d="M457.074,231.717L307.838,380.282L154.926,231.046c-7.296-7.124-19.074-7.024-26.77,0.671
			c-6.696,6.696-6.639,18.981,0.671,26.098L295.46,420.101c6.782,6.604,18.902,7.231,26.099,0l161.614-162.285
			c3.676-3.683,5.354-8.031,5.354-13.049c0-5.689-1.671-10.037-5.354-13.049C476.483,224.022,464.791,224.037,457.074,231.717z"/>
	</g>
</g>
<g>
</g>
<g>
</g>
<g>
</g>
<g>
</g>
<g>
</g>
<g>
</g>
<g>
</g>
<g>
</g>
<g>
</g>
<g>
</g>
<g>
</g>
<g>
</g>
<g>
</g>
<g>
</g>
<g>
</g>
</svg>
