<?xml version="1.0" encoding="iso-8859-1"?>
<!-- Generator: Adobe Illustrator 16.0.0, SVG Export Plug-In . SVG Version: 6.00 Build 0)  -->
<!DOCTYPE svg PUBLIC "-//W3C//DTD SVG 1.1//EN" "http://www.w3.org/Graphics/SVG/1.1/DTD/svg11.dtd">
<svg version="1.1" id="Capa_1" xmlns="http://www.w3.org/2000/svg" xmlns:xlink="http://www.w3.org/1999/xlink" x="0px" y="0px"
	 width="694.363px" height="694.363px" viewBox="0 0 694.363 694.363" style="enable-background:new 0 0 694.363 694.363;"
	 xml:space="preserve">
<g>
	<g>
		<path d="M369.942,656.135H324.42c-10.772,0-19.113,8.342-19.113,19.115c0,10.771,8.341,19.113,19.113,19.113h45.522
			c10.78,0,19.114-8.342,19.114-19.113C389.057,664.477,380.723,656.135,369.942,656.135z"/>
		<path d="M405.738,602.613H288.974c-10.773,0-19.462,8.689-19.462,19.463c0,10.779,8.689,19.121,19.462,19.121h116.764
			c10.779,0,19.12-8.342,19.12-19.121C424.858,611.303,416.518,602.613,405.738,602.613z"/>
		<path d="M634.068,286.716l-74.021,0.689c-3.478-44.136-19.462-83.4-48.311-118.158l51.78-52.477c7.443-7.54,7.999-19.113,0-27.105
			c-6.947-6.955-19.618-7.488-27.106,0l-52.477,52.477c-34.401-28.151-73.324-44.136-117.461-47.613V19.113
			C366.473,8.341,358.132,0,347.359,0c-10.78,0-19.462,8.341-19.462,19.113v75.416c-43.446,3.478-82.37,19.462-117.468,47.613
			l-52.477-52.477c-6.955-6.955-20.159-6.955-27.106,0c-7.992,7.992-8.074,19.892,0,27.803l52.825,51.779
			c-28.848,34.061-45.181,73.333-48.659,117.468l-74.719,0.689c-10.772,0.104-19.113,8.341-19.113,19.121
			c0,10.772,8.341,19.455,19.113,19.455h75.416c3.826,30.931,19.462,70.552,46.219,118.166l-51.083,51.779
			c-7.444,7.539-7.992,19.113,0,27.105c7.295,7.303,19.811,7.303,27.106,0l44.833-44.832c0,0.348,0.312,1.756,1.386,3.477
			c5.879,9.4,12.434,23.666,19.811,42.75c8.608,22.271,17.008,38.24,24.326,48.303c3.803,5.227,9.038,7.992,15.644,7.992h173.763
			c6.605,0,12.478-2.566,16.333-8.682c6.228-9.885,11.336-23.332,17.03-39.621c6.813-19.506,12.686-33.461,17.72-42.053
			l5.908-10.076l41.704,42.742c4.522,3.826,9.038,5.561,13.553,5.561c5.213,0,9.735-1.734,14.25-5.561
			c6.955-7.992,7.303-19.811-0.696-27.803l-49.696-49.695c25.719-49.697,41.014-89.311,45.529-119.552h74.719
			c10.772,0,19.113-9.03,19.113-20.151C653.182,295.746,644.841,286.612,634.068,286.716z M505.138,374.291
			c-11.47,26.068-27.81,58.037-49.703,96.611c-5.909,10.426-12.931,26.736-20.5,48.66c-2.514,7.266-5.212,14.59-8.689,22.582
			H274.724c-4.522-7.295-9.512-18.016-14.947-31.969c-7.421-19.07-14.479-35.521-22.242-48.311
			c-21.775-35.861-37.878-65.682-48.651-89.658c-10.772-23.984-15.592-46.923-15.985-68.461
			c-1.698-92.453,80.613-173.593,174.46-172.028c31.621,0.526,61.085,7.77,87.924,23.28c26.683,15.421,47.953,36.144,63.598,62.56
			c15.636,26.409,23.279,55.257,23.279,86.188C522.16,324.943,516.6,348.223,505.138,374.291z"/>
		<path d="M409.912,262.383c-3.752-3.922-8.341-6.25-14.947-6.25c-5.908,1.038-10.372,3.173-13.553,6.947l-46.219,54.908
			l-22.939-70.544c-2.38-7.318-7.644-11.818-15.636-13.553h-2.432c-6.606,0-12.003,2.632-15.985,7.993l-53.522,71.938
			c-2.825,3.789-4.174,7.992-4.174,12.159c0,1.045,0,1.743,0.348,2.78c0.697,5.22,3.225,8.904,7.651,12.167
			c8.778,6.473,20.389,4.538,26.757-3.826l32.318-42.394l21.894,68.112c2.528,7.867,7.993,12.168,14.947,13.553h3.477
			c6.599,0,11.811-2.432,14.939-6.945l54.219-64.992l43.439,45.529c7.8,8.178,19.811,8.689,27.803,0.697
			c3.818-3.826,5.909-8.341,5.909-13.561c0-5.212-2.181-9.638-5.909-13.553L409.912,262.383z"/>
	</g>
</g>
<g>
</g>
<g>
</g>
<g>
</g>
<g>
</g>
<g>
</g>
<g>
</g>
<g>
</g>
<g>
</g>
<g>
</g>
<g>
</g>
<g>
</g>
<g>
</g>
<g>
</g>
<g>
</g>
<g>
</g>
</svg>
